<?xml version="1.0" standalone="no"?>
<svg xmlns:xlink="http://www.w3.org/1999/xlink" id="wave" style="transform:rotate(0deg); transition: 0.3s" viewBox="0 0 1440 490" version="1.1" xmlns="http://www.w3.org/2000/svg"><defs><linearGradient id="sw-gradient-0" x1="0" x2="0" y1="1" y2="0"><stop stop-color="rgba(197, 102, 224, 1)" offset="0%"/><stop stop-color="rgba(249, 232, 251, 1)" offset="100%"/></linearGradient></defs><path style="transform:translate(0, 0px); opacity:1" fill="url(#sw-gradient-0)" d="M0,147L48,163.3C96,180,192,212,288,204.2C384,196,480,147,576,171.5C672,196,768,294,864,310.3C960,327,1056,261,1152,204.2C1248,147,1344,98,1440,106.2C1536,114,1632,180,1728,245C1824,310,1920,376,2016,334.8C2112,294,2208,147,2304,89.8C2400,33,2496,65,2592,73.5C2688,82,2784,65,2880,89.8C2976,114,3072,180,3168,187.8C3264,196,3360,147,3456,163.3C3552,180,3648,261,3744,253.2C3840,245,3936,147,4032,122.5C4128,98,4224,147,4320,196C4416,245,4512,294,4608,269.5C4704,245,4800,147,4896,130.7C4992,114,5088,180,5184,204.2C5280,229,5376,212,5472,196C5568,180,5664,163,5760,187.8C5856,212,5952,278,6048,302.2C6144,327,6240,310,6336,277.7C6432,245,6528,196,6624,171.5C6720,147,6816,147,6864,147L6912,147L6912,490L6864,490C6816,490,6720,490,6624,490C6528,490,6432,490,6336,490C6240,490,6144,490,6048,490C5952,490,5856,490,5760,490C5664,490,5568,490,5472,490C5376,490,5280,490,5184,490C5088,490,4992,490,4896,490C4800,490,4704,490,4608,490C4512,490,4416,490,4320,490C4224,490,4128,490,4032,490C3936,490,3840,490,3744,490C3648,490,3552,490,3456,490C3360,490,3264,490,3168,490C3072,490,2976,490,2880,490C2784,490,2688,490,2592,490C2496,490,2400,490,2304,490C2208,490,2112,490,2016,490C1920,490,1824,490,1728,490C1632,490,1536,490,1440,490C1344,490,1248,490,1152,490C1056,490,960,490,864,490C768,490,672,490,576,490C480,490,384,490,288,490C192,490,96,490,48,490L0,490Z"/><defs><linearGradient id="sw-gradient-1" x1="0" x2="0" y1="1" y2="0"><stop stop-color="rgba(197, 102, 224, 1)" offset="0%"/><stop stop-color="rgba(249, 232, 251, 1)" offset="100%"/></linearGradient></defs><path style="transform:translate(0, 50px); opacity:0.9" fill="url(#sw-gradient-1)" d="M0,49L48,98C96,147,192,245,288,253.2C384,261,480,180,576,138.8C672,98,768,98,864,130.7C960,163,1056,229,1152,228.7C1248,229,1344,163,1440,114.3C1536,65,1632,33,1728,57.2C1824,82,1920,163,2016,171.5C2112,180,2208,114,2304,114.3C2400,114,2496,180,2592,187.8C2688,196,2784,147,2880,106.2C2976,65,3072,33,3168,73.5C3264,114,3360,229,3456,261.3C3552,294,3648,245,3744,212.3C3840,180,3936,163,4032,196C4128,229,4224,310,4320,310.3C4416,310,4512,229,4608,204.2C4704,180,4800,212,4896,236.8C4992,261,5088,278,5184,236.8C5280,196,5376,98,5472,73.5C5568,49,5664,98,5760,114.3C5856,131,5952,114,6048,147C6144,180,6240,261,6336,261.3C6432,261,6528,180,6624,187.8C6720,196,6816,294,6864,343L6912,392L6912,490L6864,490C6816,490,6720,490,6624,490C6528,490,6432,490,6336,490C6240,490,6144,490,6048,490C5952,490,5856,490,5760,490C5664,490,5568,490,5472,490C5376,490,5280,490,5184,490C5088,490,4992,490,4896,490C4800,490,4704,490,4608,490C4512,490,4416,490,4320,490C4224,490,4128,490,4032,490C3936,490,3840,490,3744,490C3648,490,3552,490,3456,490C3360,490,3264,490,3168,490C3072,490,2976,490,2880,490C2784,490,2688,490,2592,490C2496,490,2400,490,2304,490C2208,490,2112,490,2016,490C1920,490,1824,490,1728,490C1632,490,1536,490,1440,490C1344,490,1248,490,1152,490C1056,490,960,490,864,490C768,490,672,490,576,490C480,490,384,490,288,490C192,490,96,490,48,490L0,490Z"/><defs><linearGradient id="sw-gradient-2" x1="0" x2="0" y1="1" y2="0"><stop stop-color="rgba(197, 102, 224, 1)" offset="0%"/><stop stop-color="rgba(249, 232, 251, 1)" offset="100%"/></linearGradient></defs><path style="transform:translate(0, 100px); opacity:0.8" fill="url(#sw-gradient-2)" d="M0,343L48,334.8C96,327,192,310,288,310.3C384,310,480,327,576,334.8C672,343,768,343,864,343C960,343,1056,343,1152,343C1248,343,1344,343,1440,359.3C1536,376,1632,408,1728,367.5C1824,327,1920,212,2016,163.3C2112,114,2208,131,2304,187.8C2400,245,2496,343,2592,318.5C2688,294,2784,147,2880,138.8C2976,131,3072,261,3168,269.5C3264,278,3360,163,3456,163.3C3552,163,3648,278,3744,343C3840,408,3936,425,4032,432.8C4128,441,4224,441,4320,400.2C4416,359,4512,278,4608,204.2C4704,131,4800,65,4896,73.5C4992,82,5088,163,5184,171.5C5280,180,5376,114,5472,106.2C5568,98,5664,147,5760,163.3C5856,180,5952,163,6048,147C6144,131,6240,114,6336,89.8C6432,65,6528,33,6624,16.3C6720,0,6816,0,6864,0L6912,0L6912,490L6864,490C6816,490,6720,490,6624,490C6528,490,6432,490,6336,490C6240,490,6144,490,6048,490C5952,490,5856,490,5760,490C5664,490,5568,490,5472,490C5376,490,5280,490,5184,490C5088,490,4992,490,4896,490C4800,490,4704,490,4608,490C4512,490,4416,490,4320,490C4224,490,4128,490,4032,490C3936,490,3840,490,3744,490C3648,490,3552,490,3456,490C3360,490,3264,490,3168,490C3072,490,2976,490,2880,490C2784,490,2688,490,2592,490C2496,490,2400,490,2304,490C2208,490,2112,490,2016,490C1920,490,1824,490,1728,490C1632,490,1536,490,1440,490C1344,490,1248,490,1152,490C1056,490,960,490,864,490C768,490,672,490,576,490C480,490,384,490,288,490C192,490,96,490,48,490L0,490Z"/></svg>