<?xml version="1.0" standalone="no"?>
<svg xmlns:xlink="http://www.w3.org/1999/xlink" id="wave" style="transform:rotate(0deg); transition: 0.3s" viewBox="0 0 1440 190" version="1.1" xmlns="http://www.w3.org/2000/svg"><defs><linearGradient id="sw-gradient-0" x1="0" x2="0" y1="1" y2="0"><stop stop-color="rgba(197, 102, 224, 1)" offset="0%"/><stop stop-color="rgba(249, 232, 251, 1)" offset="100%"/></linearGradient></defs><path style="transform:translate(0, 0px); opacity:1" fill="url(#sw-gradient-0)" d="M0,57L48,63.3C96,70,192,82,288,79.2C384,76,480,57,576,66.5C672,76,768,114,864,120.3C960,127,1056,101,1152,79.2C1248,57,1344,38,1440,41.2C1536,44,1632,70,1728,95C1824,120,1920,146,2016,129.8C2112,114,2208,57,2304,34.8C2400,13,2496,25,2592,28.5C2688,32,2784,25,2880,34.8C2976,44,3072,70,3168,72.8C3264,76,3360,57,3456,63.3C3552,70,3648,101,3744,98.2C3840,95,3936,57,4032,47.5C4128,38,4224,57,4320,76C4416,95,4512,114,4608,104.5C4704,95,4800,57,4896,50.7C4992,44,5088,70,5184,79.2C5280,89,5376,82,5472,76C5568,70,5664,63,5760,72.8C5856,82,5952,108,6048,117.2C6144,127,6240,120,6336,107.7C6432,95,6528,76,6624,66.5C6720,57,6816,57,6864,57L6912,57L6912,190L6864,190C6816,190,6720,190,6624,190C6528,190,6432,190,6336,190C6240,190,6144,190,6048,190C5952,190,5856,190,5760,190C5664,190,5568,190,5472,190C5376,190,5280,190,5184,190C5088,190,4992,190,4896,190C4800,190,4704,190,4608,190C4512,190,4416,190,4320,190C4224,190,4128,190,4032,190C3936,190,3840,190,3744,190C3648,190,3552,190,3456,190C3360,190,3264,190,3168,190C3072,190,2976,190,2880,190C2784,190,2688,190,2592,190C2496,190,2400,190,2304,190C2208,190,2112,190,2016,190C1920,190,1824,190,1728,190C1632,190,1536,190,1440,190C1344,190,1248,190,1152,190C1056,190,960,190,864,190C768,190,672,190,576,190C480,190,384,190,288,190C192,190,96,190,48,190L0,190Z"/><defs><linearGradient id="sw-gradient-1" x1="0" x2="0" y1="1" y2="0"><stop stop-color="rgba(197, 102, 224, 1)" offset="0%"/><stop stop-color="rgba(249, 232, 251, 1)" offset="100%"/></linearGradient></defs><path style="transform:translate(0, 50px); opacity:0.9" fill="url(#sw-gradient-1)" d="M0,19L48,38C96,57,192,95,288,98.2C384,101,480,70,576,53.8C672,38,768,38,864,50.7C960,63,1056,89,1152,88.7C1248,89,1344,63,1440,44.3C1536,25,1632,13,1728,22.2C1824,32,1920,63,2016,66.5C2112,70,2208,44,2304,44.3C2400,44,2496,70,2592,72.8C2688,76,2784,57,2880,41.2C2976,25,3072,13,3168,28.5C3264,44,3360,89,3456,101.3C3552,114,3648,95,3744,82.3C3840,70,3936,63,4032,76C4128,89,4224,120,4320,120.3C4416,120,4512,89,4608,79.2C4704,70,4800,82,4896,91.8C4992,101,5088,108,5184,91.8C5280,76,5376,38,5472,28.5C5568,19,5664,38,5760,44.3C5856,51,5952,44,6048,57C6144,70,6240,101,6336,101.3C6432,101,6528,70,6624,72.8C6720,76,6816,114,6864,133L6912,152L6912,190L6864,190C6816,190,6720,190,6624,190C6528,190,6432,190,6336,190C6240,190,6144,190,6048,190C5952,190,5856,190,5760,190C5664,190,5568,190,5472,190C5376,190,5280,190,5184,190C5088,190,4992,190,4896,190C4800,190,4704,190,4608,190C4512,190,4416,190,4320,190C4224,190,4128,190,4032,190C3936,190,3840,190,3744,190C3648,190,3552,190,3456,190C3360,190,3264,190,3168,190C3072,190,2976,190,2880,190C2784,190,2688,190,2592,190C2496,190,2400,190,2304,190C2208,190,2112,190,2016,190C1920,190,1824,190,1728,190C1632,190,1536,190,1440,190C1344,190,1248,190,1152,190C1056,190,960,190,864,190C768,190,672,190,576,190C480,190,384,190,288,190C192,190,96,190,48,190L0,190Z"/><defs><linearGradient id="sw-gradient-2" x1="0" x2="0" y1="1" y2="0"><stop stop-color="rgba(197, 102, 224, 1)" offset="0%"/><stop stop-color="rgba(249, 232, 251, 1)" offset="100%"/></linearGradient></defs><path style="transform:translate(0, 100px); opacity:0.8" fill="url(#sw-gradient-2)" d="M0,133L48,129.8C96,127,192,120,288,120.3C384,120,480,127,576,129.8C672,133,768,133,864,133C960,133,1056,133,1152,133C1248,133,1344,133,1440,139.3C1536,146,1632,158,1728,142.5C1824,127,1920,82,2016,63.3C2112,44,2208,51,2304,72.8C2400,95,2496,133,2592,123.5C2688,114,2784,57,2880,53.8C2976,51,3072,101,3168,104.5C3264,108,3360,63,3456,63.3C3552,63,3648,108,3744,133C3840,158,3936,165,4032,167.8C4128,171,4224,171,4320,155.2C4416,139,4512,108,4608,79.2C4704,51,4800,25,4896,28.5C4992,32,5088,63,5184,66.5C5280,70,5376,44,5472,41.2C5568,38,5664,57,5760,63.3C5856,70,5952,63,6048,57C6144,51,6240,44,6336,34.8C6432,25,6528,13,6624,6.3C6720,0,6816,0,6864,0L6912,0L6912,190L6864,190C6816,190,6720,190,6624,190C6528,190,6432,190,6336,190C6240,190,6144,190,6048,190C5952,190,5856,190,5760,190C5664,190,5568,190,5472,190C5376,190,5280,190,5184,190C5088,190,4992,190,4896,190C4800,190,4704,190,4608,190C4512,190,4416,190,4320,190C4224,190,4128,190,4032,190C3936,190,3840,190,3744,190C3648,190,3552,190,3456,190C3360,190,3264,190,3168,190C3072,190,2976,190,2880,190C2784,190,2688,190,2592,190C2496,190,2400,190,2304,190C2208,190,2112,190,2016,190C1920,190,1824,190,1728,190C1632,190,1536,190,1440,190C1344,190,1248,190,1152,190C1056,190,960,190,864,190C768,190,672,190,576,190C480,190,384,190,288,190C192,190,96,190,48,190L0,190Z"/></svg>