<?xml version="1.0" standalone="no"?>
<svg xmlns:xlink="http://www.w3.org/1999/xlink" id="wave" style="transform:rotate(0deg); transition: 0.3s" viewBox="0 0 1440 220" version="1.1" xmlns="http://www.w3.org/2000/svg"><defs><linearGradient id="sw-gradient-0" x1="0" x2="0" y1="1" y2="0"><stop stop-color="rgba(173, 42, 209, 1)" offset="0%"/><stop stop-color="rgba(227, 138, 235, 1)" offset="100%"/></linearGradient></defs><path style="transform:translate(0, 0px); opacity:1" fill="url(#sw-gradient-0)" d="M0,66L80,69.7C160,73,320,81,480,102.7C640,125,800,161,960,161.3C1120,161,1280,125,1440,124.7C1600,125,1760,161,1920,146.7C2080,132,2240,66,2400,33C2560,0,2720,0,2880,0C3040,0,3200,0,3360,29.3C3520,59,3680,117,3840,121C4000,125,4160,73,4320,47.7C4480,22,4640,22,4800,51.3C4960,81,5120,139,5280,135.7C5440,132,5600,66,5760,58.7C5920,51,6080,103,6240,117.3C6400,132,6560,110,6720,91.7C6880,73,7040,59,7200,55C7360,51,7520,59,7680,69.7C7840,81,8000,95,8160,95.3C8320,95,8480,81,8640,88C8800,95,8960,125,9120,146.7C9280,169,9440,183,9600,165C9760,147,9920,95,10080,88C10240,81,10400,117,10560,117.3C10720,117,10880,81,11040,77C11200,73,11360,103,11440,117.3L11520,132L11520,220L11440,220C11360,220,11200,220,11040,220C10880,220,10720,220,10560,220C10400,220,10240,220,10080,220C9920,220,9760,220,9600,220C9440,220,9280,220,9120,220C8960,220,8800,220,8640,220C8480,220,8320,220,8160,220C8000,220,7840,220,7680,220C7520,220,7360,220,7200,220C7040,220,6880,220,6720,220C6560,220,6400,220,6240,220C6080,220,5920,220,5760,220C5600,220,5440,220,5280,220C5120,220,4960,220,4800,220C4640,220,4480,220,4320,220C4160,220,4000,220,3840,220C3680,220,3520,220,3360,220C3200,220,3040,220,2880,220C2720,220,2560,220,2400,220C2240,220,2080,220,1920,220C1760,220,1600,220,1440,220C1280,220,1120,220,960,220C800,220,640,220,480,220C320,220,160,220,80,220L0,220Z"/><defs><linearGradient id="sw-gradient-1" x1="0" x2="0" y1="1" y2="0"><stop stop-color="rgba(173, 42, 209, 1)" offset="0%"/><stop stop-color="rgba(227, 138, 235, 1)" offset="100%"/></linearGradient></defs><path style="transform:translate(0, 50px); opacity:0.9" fill="url(#sw-gradient-1)" d="M0,110L80,106.3C160,103,320,95,480,102.7C640,110,800,132,960,117.3C1120,103,1280,51,1440,55C1600,59,1760,117,1920,124.7C2080,132,2240,88,2400,73.3C2560,59,2720,73,2880,77C3040,81,3200,73,3360,77C3520,81,3680,95,3840,99C4000,103,4160,95,4320,77C4480,59,4640,29,4800,44C4960,59,5120,117,5280,117.3C5440,117,5600,59,5760,47.7C5920,37,6080,73,6240,80.7C6400,88,6560,66,6720,58.7C6880,51,7040,59,7200,51.3C7360,44,7520,22,7680,11C7840,0,8000,0,8160,29.3C8320,59,8480,117,8640,150.3C8800,183,8960,191,9120,179.7C9280,169,9440,139,9600,128.3C9760,117,9920,125,10080,135.7C10240,147,10400,161,10560,146.7C10720,132,10880,88,11040,88C11200,88,11360,132,11440,154L11520,176L11520,220L11440,220C11360,220,11200,220,11040,220C10880,220,10720,220,10560,220C10400,220,10240,220,10080,220C9920,220,9760,220,9600,220C9440,220,9280,220,9120,220C8960,220,8800,220,8640,220C8480,220,8320,220,8160,220C8000,220,7840,220,7680,220C7520,220,7360,220,7200,220C7040,220,6880,220,6720,220C6560,220,6400,220,6240,220C6080,220,5920,220,5760,220C5600,220,5440,220,5280,220C5120,220,4960,220,4800,220C4640,220,4480,220,4320,220C4160,220,4000,220,3840,220C3680,220,3520,220,3360,220C3200,220,3040,220,2880,220C2720,220,2560,220,2400,220C2240,220,2080,220,1920,220C1760,220,1600,220,1440,220C1280,220,1120,220,960,220C800,220,640,220,480,220C320,220,160,220,80,220L0,220Z"/><defs><linearGradient id="sw-gradient-2" x1="0" x2="0" y1="1" y2="0"><stop stop-color="rgba(173, 42, 209, 1)" offset="0%"/><stop stop-color="rgba(227, 138, 235, 1)" offset="100%"/></linearGradient></defs><path style="transform:translate(0, 100px); opacity:0.8" fill="url(#sw-gradient-2)" d="M0,132L80,113.7C160,95,320,59,480,51.3C640,44,800,66,960,88C1120,110,1280,132,1440,135.7C1600,139,1760,125,1920,121C2080,117,2240,125,2400,110C2560,95,2720,59,2880,36.7C3040,15,3200,7,3360,29.3C3520,51,3680,103,3840,124.7C4000,147,4160,139,4320,121C4480,103,4640,73,4800,77C4960,81,5120,117,5280,132C5440,147,5600,139,5760,132C5920,125,6080,117,6240,110C6400,103,6560,95,6720,106.3C6880,117,7040,147,7200,143C7360,139,7520,103,7680,77C7840,51,8000,37,8160,44C8320,51,8480,81,8640,95.3C8800,110,8960,110,9120,91.7C9280,73,9440,37,9600,18.3C9760,0,9920,0,10080,11C10240,22,10400,44,10560,62.3C10720,81,10880,95,11040,99C11200,103,11360,95,11440,91.7L11520,88L11520,220L11440,220C11360,220,11200,220,11040,220C10880,220,10720,220,10560,220C10400,220,10240,220,10080,220C9920,220,9760,220,9600,220C9440,220,9280,220,9120,220C8960,220,8800,220,8640,220C8480,220,8320,220,8160,220C8000,220,7840,220,7680,220C7520,220,7360,220,7200,220C7040,220,6880,220,6720,220C6560,220,6400,220,6240,220C6080,220,5920,220,5760,220C5600,220,5440,220,5280,220C5120,220,4960,220,4800,220C4640,220,4480,220,4320,220C4160,220,4000,220,3840,220C3680,220,3520,220,3360,220C3200,220,3040,220,2880,220C2720,220,2560,220,2400,220C2240,220,2080,220,1920,220C1760,220,1600,220,1440,220C1280,220,1120,220,960,220C800,220,640,220,480,220C320,220,160,220,80,220L0,220Z"/></svg>