<?xml version="1.0" standalone="no"?>
<svg xmlns:xlink="http://www.w3.org/1999/xlink" id="wave" style="transform:rotate(0deg); transition: 0.3s" viewBox="0 0 1440 490" version="1.1" xmlns="http://www.w3.org/2000/svg"><defs><linearGradient id="sw-gradient-0" x1="0" x2="0" y1="1" y2="0"><stop stop-color="rgba(173, 42, 209, 1)" offset="0%"/><stop stop-color="rgba(227, 138, 235, 1)" offset="100%"/></linearGradient></defs><path style="transform:translate(0, 0px); opacity:1" fill="url(#sw-gradient-0)" d="M0,147L80,155.2C160,163,320,180,480,228.7C640,278,800,359,960,359.3C1120,359,1280,278,1440,277.7C1600,278,1760,359,1920,326.7C2080,294,2240,147,2400,73.5C2560,0,2720,0,2880,0C3040,0,3200,0,3360,65.3C3520,131,3680,261,3840,269.5C4000,278,4160,163,4320,106.2C4480,49,4640,49,4800,114.3C4960,180,5120,310,5280,302.2C5440,294,5600,147,5760,130.7C5920,114,6080,229,6240,261.3C6400,294,6560,245,6720,204.2C6880,163,7040,131,7200,122.5C7360,114,7520,131,7680,155.2C7840,180,8000,212,8160,212.3C8320,212,8480,180,8640,196C8800,212,8960,278,9120,326.7C9280,376,9440,408,9600,367.5C9760,327,9920,212,10080,196C10240,180,10400,261,10560,261.3C10720,261,10880,180,11040,171.5C11200,163,11360,229,11440,261.3L11520,294L11520,490L11440,490C11360,490,11200,490,11040,490C10880,490,10720,490,10560,490C10400,490,10240,490,10080,490C9920,490,9760,490,9600,490C9440,490,9280,490,9120,490C8960,490,8800,490,8640,490C8480,490,8320,490,8160,490C8000,490,7840,490,7680,490C7520,490,7360,490,7200,490C7040,490,6880,490,6720,490C6560,490,6400,490,6240,490C6080,490,5920,490,5760,490C5600,490,5440,490,5280,490C5120,490,4960,490,4800,490C4640,490,4480,490,4320,490C4160,490,4000,490,3840,490C3680,490,3520,490,3360,490C3200,490,3040,490,2880,490C2720,490,2560,490,2400,490C2240,490,2080,490,1920,490C1760,490,1600,490,1440,490C1280,490,1120,490,960,490C800,490,640,490,480,490C320,490,160,490,80,490L0,490Z"/><defs><linearGradient id="sw-gradient-1" x1="0" x2="0" y1="1" y2="0"><stop stop-color="rgba(173, 42, 209, 1)" offset="0%"/><stop stop-color="rgba(227, 138, 235, 1)" offset="100%"/></linearGradient></defs><path style="transform:translate(0, 50px); opacity:0.9" fill="url(#sw-gradient-1)" d="M0,245L80,236.8C160,229,320,212,480,228.7C640,245,800,294,960,261.3C1120,229,1280,114,1440,122.5C1600,131,1760,261,1920,277.7C2080,294,2240,196,2400,163.3C2560,131,2720,163,2880,171.5C3040,180,3200,163,3360,171.5C3520,180,3680,212,3840,220.5C4000,229,4160,212,4320,171.5C4480,131,4640,65,4800,98C4960,131,5120,261,5280,261.3C5440,261,5600,131,5760,106.2C5920,82,6080,163,6240,179.7C6400,196,6560,147,6720,130.7C6880,114,7040,131,7200,114.3C7360,98,7520,49,7680,24.5C7840,0,8000,0,8160,65.3C8320,131,8480,261,8640,334.8C8800,408,8960,425,9120,400.2C9280,376,9440,310,9600,285.8C9760,261,9920,278,10080,302.2C10240,327,10400,359,10560,326.7C10720,294,10880,196,11040,196C11200,196,11360,294,11440,343L11520,392L11520,490L11440,490C11360,490,11200,490,11040,490C10880,490,10720,490,10560,490C10400,490,10240,490,10080,490C9920,490,9760,490,9600,490C9440,490,9280,490,9120,490C8960,490,8800,490,8640,490C8480,490,8320,490,8160,490C8000,490,7840,490,7680,490C7520,490,7360,490,7200,490C7040,490,6880,490,6720,490C6560,490,6400,490,6240,490C6080,490,5920,490,5760,490C5600,490,5440,490,5280,490C5120,490,4960,490,4800,490C4640,490,4480,490,4320,490C4160,490,4000,490,3840,490C3680,490,3520,490,3360,490C3200,490,3040,490,2880,490C2720,490,2560,490,2400,490C2240,490,2080,490,1920,490C1760,490,1600,490,1440,490C1280,490,1120,490,960,490C800,490,640,490,480,490C320,490,160,490,80,490L0,490Z"/><defs><linearGradient id="sw-gradient-2" x1="0" x2="0" y1="1" y2="0"><stop stop-color="rgba(173, 42, 209, 1)" offset="0%"/><stop stop-color="rgba(227, 138, 235, 1)" offset="100%"/></linearGradient></defs><path style="transform:translate(0, 100px); opacity:0.8" fill="url(#sw-gradient-2)" d="M0,294L80,253.2C160,212,320,131,480,114.3C640,98,800,147,960,196C1120,245,1280,294,1440,302.2C1600,310,1760,278,1920,269.5C2080,261,2240,278,2400,245C2560,212,2720,131,2880,81.7C3040,33,3200,16,3360,65.3C3520,114,3680,229,3840,277.7C4000,327,4160,310,4320,269.5C4480,229,4640,163,4800,171.5C4960,180,5120,261,5280,294C5440,327,5600,310,5760,294C5920,278,6080,261,6240,245C6400,229,6560,212,6720,236.8C6880,261,7040,327,7200,318.5C7360,310,7520,229,7680,171.5C7840,114,8000,82,8160,98C8320,114,8480,180,8640,212.3C8800,245,8960,245,9120,204.2C9280,163,9440,82,9600,40.8C9760,0,9920,0,10080,24.5C10240,49,10400,98,10560,138.8C10720,180,10880,212,11040,220.5C11200,229,11360,212,11440,204.2L11520,196L11520,490L11440,490C11360,490,11200,490,11040,490C10880,490,10720,490,10560,490C10400,490,10240,490,10080,490C9920,490,9760,490,9600,490C9440,490,9280,490,9120,490C8960,490,8800,490,8640,490C8480,490,8320,490,8160,490C8000,490,7840,490,7680,490C7520,490,7360,490,7200,490C7040,490,6880,490,6720,490C6560,490,6400,490,6240,490C6080,490,5920,490,5760,490C5600,490,5440,490,5280,490C5120,490,4960,490,4800,490C4640,490,4480,490,4320,490C4160,490,4000,490,3840,490C3680,490,3520,490,3360,490C3200,490,3040,490,2880,490C2720,490,2560,490,2400,490C2240,490,2080,490,1920,490C1760,490,1600,490,1440,490C1280,490,1120,490,960,490C800,490,640,490,480,490C320,490,160,490,80,490L0,490Z"/></svg>