<?xml version="1.0" standalone="no"?>
<svg xmlns:xlink="http://www.w3.org/1999/xlink" id="wave" style="transform:rotate(0deg); transition: 0.3s" viewBox="0 0 1440 330" version="1.1" xmlns="http://www.w3.org/2000/svg"><defs><linearGradient id="sw-gradient-0" x1="0" x2="0" y1="1" y2="0"><stop stop-color="rgba(173, 42, 209, 1)" offset="0%"/><stop stop-color="rgba(227, 138, 235, 1)" offset="100%"/></linearGradient></defs><path style="transform:translate(0, 0px); opacity:1" fill="url(#sw-gradient-0)" d="M0,99L80,104.5C160,110,320,121,480,154C640,187,800,242,960,242C1120,242,1280,187,1440,187C1600,187,1760,242,1920,220C2080,198,2240,99,2400,49.5C2560,0,2720,0,2880,0C3040,0,3200,0,3360,44C3520,88,3680,176,3840,181.5C4000,187,4160,110,4320,71.5C4480,33,4640,33,4800,77C4960,121,5120,209,5280,203.5C5440,198,5600,99,5760,88C5920,77,6080,154,6240,176C6400,198,6560,165,6720,137.5C6880,110,7040,88,7200,82.5C7360,77,7520,88,7680,104.5C7840,121,8000,143,8160,143C8320,143,8480,121,8640,132C8800,143,8960,187,9120,220C9280,253,9440,275,9600,247.5C9760,220,9920,143,10080,132C10240,121,10400,176,10560,176C10720,176,10880,121,11040,115.5C11200,110,11360,154,11440,176L11520,198L11520,330L11440,330C11360,330,11200,330,11040,330C10880,330,10720,330,10560,330C10400,330,10240,330,10080,330C9920,330,9760,330,9600,330C9440,330,9280,330,9120,330C8960,330,8800,330,8640,330C8480,330,8320,330,8160,330C8000,330,7840,330,7680,330C7520,330,7360,330,7200,330C7040,330,6880,330,6720,330C6560,330,6400,330,6240,330C6080,330,5920,330,5760,330C5600,330,5440,330,5280,330C5120,330,4960,330,4800,330C4640,330,4480,330,4320,330C4160,330,4000,330,3840,330C3680,330,3520,330,3360,330C3200,330,3040,330,2880,330C2720,330,2560,330,2400,330C2240,330,2080,330,1920,330C1760,330,1600,330,1440,330C1280,330,1120,330,960,330C800,330,640,330,480,330C320,330,160,330,80,330L0,330Z"/><defs><linearGradient id="sw-gradient-1" x1="0" x2="0" y1="1" y2="0"><stop stop-color="rgba(173, 42, 209, 1)" offset="0%"/><stop stop-color="rgba(227, 138, 235, 1)" offset="100%"/></linearGradient></defs><path style="transform:translate(0, 50px); opacity:0.9" fill="url(#sw-gradient-1)" d="M0,165L80,159.5C160,154,320,143,480,154C640,165,800,198,960,176C1120,154,1280,77,1440,82.5C1600,88,1760,176,1920,187C2080,198,2240,132,2400,110C2560,88,2720,110,2880,115.5C3040,121,3200,110,3360,115.5C3520,121,3680,143,3840,148.5C4000,154,4160,143,4320,115.5C4480,88,4640,44,4800,66C4960,88,5120,176,5280,176C5440,176,5600,88,5760,71.5C5920,55,6080,110,6240,121C6400,132,6560,99,6720,88C6880,77,7040,88,7200,77C7360,66,7520,33,7680,16.5C7840,0,8000,0,8160,44C8320,88,8480,176,8640,225.5C8800,275,8960,286,9120,269.5C9280,253,9440,209,9600,192.5C9760,176,9920,187,10080,203.5C10240,220,10400,242,10560,220C10720,198,10880,132,11040,132C11200,132,11360,198,11440,231L11520,264L11520,330L11440,330C11360,330,11200,330,11040,330C10880,330,10720,330,10560,330C10400,330,10240,330,10080,330C9920,330,9760,330,9600,330C9440,330,9280,330,9120,330C8960,330,8800,330,8640,330C8480,330,8320,330,8160,330C8000,330,7840,330,7680,330C7520,330,7360,330,7200,330C7040,330,6880,330,6720,330C6560,330,6400,330,6240,330C6080,330,5920,330,5760,330C5600,330,5440,330,5280,330C5120,330,4960,330,4800,330C4640,330,4480,330,4320,330C4160,330,4000,330,3840,330C3680,330,3520,330,3360,330C3200,330,3040,330,2880,330C2720,330,2560,330,2400,330C2240,330,2080,330,1920,330C1760,330,1600,330,1440,330C1280,330,1120,330,960,330C800,330,640,330,480,330C320,330,160,330,80,330L0,330Z"/><defs><linearGradient id="sw-gradient-2" x1="0" x2="0" y1="1" y2="0"><stop stop-color="rgba(173, 42, 209, 1)" offset="0%"/><stop stop-color="rgba(227, 138, 235, 1)" offset="100%"/></linearGradient></defs><path style="transform:translate(0, 100px); opacity:0.8" fill="url(#sw-gradient-2)" d="M0,198L80,170.5C160,143,320,88,480,77C640,66,800,99,960,132C1120,165,1280,198,1440,203.5C1600,209,1760,187,1920,181.5C2080,176,2240,187,2400,165C2560,143,2720,88,2880,55C3040,22,3200,11,3360,44C3520,77,3680,154,3840,187C4000,220,4160,209,4320,181.5C4480,154,4640,110,4800,115.5C4960,121,5120,176,5280,198C5440,220,5600,209,5760,198C5920,187,6080,176,6240,165C6400,154,6560,143,6720,159.5C6880,176,7040,220,7200,214.5C7360,209,7520,154,7680,115.5C7840,77,8000,55,8160,66C8320,77,8480,121,8640,143C8800,165,8960,165,9120,137.5C9280,110,9440,55,9600,27.5C9760,0,9920,0,10080,16.5C10240,33,10400,66,10560,93.5C10720,121,10880,143,11040,148.5C11200,154,11360,143,11440,137.5L11520,132L11520,330L11440,330C11360,330,11200,330,11040,330C10880,330,10720,330,10560,330C10400,330,10240,330,10080,330C9920,330,9760,330,9600,330C9440,330,9280,330,9120,330C8960,330,8800,330,8640,330C8480,330,8320,330,8160,330C8000,330,7840,330,7680,330C7520,330,7360,330,7200,330C7040,330,6880,330,6720,330C6560,330,6400,330,6240,330C6080,330,5920,330,5760,330C5600,330,5440,330,5280,330C5120,330,4960,330,4800,330C4640,330,4480,330,4320,330C4160,330,4000,330,3840,330C3680,330,3520,330,3360,330C3200,330,3040,330,2880,330C2720,330,2560,330,2400,330C2240,330,2080,330,1920,330C1760,330,1600,330,1440,330C1280,330,1120,330,960,330C800,330,640,330,480,330C320,330,160,330,80,330L0,330Z"/></svg>